<svg version="1.1" id="Layer_1" xmlns="http://www.w3.org/2000/svg" xmlns:xlink="http://www.w3.org/1999/xlink" x="0px" y="0px"
	 width="100%" viewBox="0 0 500 500" enable-background="new 0 0 500 500" xml:space="preserve">
<path fill="#2E6C7B" opacity="1.000000" stroke="none" 
	d="
M501.000000,232.000000 
	C501.000000,244.354233 501.000000,256.708466 500.644165,269.746338 
	C497.366089,304.283875 488.810913,336.638794 472.572205,366.523499 
	C432.373871,440.501831 370.419006,484.265411 287.392700,498.200470 
	C281.601654,499.172455 275.797852,500.068604 270.000000,501.000000 
	C257.645782,501.000000 245.291550,501.000000 232.250916,500.646698 
	C214.275330,497.064697 196.350296,495.760101 179.801468,490.291199 
	C81.537361,457.817505 22.624903,390.437714 3.880489,288.380005 
	C2.819846,282.605133 1.955636,276.794159 1.000001,271.000000 
	C1.000000,257.645782 1.000000,244.291550 1.365865,230.286453 
	C3.470475,218.804749 4.736647,207.873123 7.021505,197.158752 
	C28.473505,96.563904 112.466904,18.420061 214.597916,3.783829 
	C220.412170,2.950596 226.199921,1.932211 232.000000,0.999999 
	C244.354233,1.000000 256.708466,1.000000 269.729950,1.367123 
	C289.010712,3.336558 307.522736,6.088523 325.134033,12.253389 
	C421.925873,46.135513 480.165833,113.243263 498.212585,214.596161 
	C499.242371,220.379517 500.075409,226.197906 501.000000,232.000000 
M238.007111,167.506317 
	C256.258087,142.141449 274.509094,116.776596 292.963470,91.129036 
	C291.938507,91.129036 291.290649,91.069382 290.656525,91.137619 
	C265.996918,93.791374 241.327911,96.366989 216.698685,99.278862 
	C214.560577,99.531654 212.031433,101.590469 210.787460,103.521324 
	C193.570480,130.244888 176.552994,157.096924 159.455811,183.897827 
	C158.670441,185.128952 157.593979,186.174377 156.653091,187.306290 
	C156.189987,187.080597 155.726898,186.854904 155.263794,186.629227 
	C160.521927,158.503937 165.780075,130.378647 171.046661,102.208099 
	C148.579666,100.862350 126.703484,99.552002 104.673912,98.232460 
	C93.831078,197.251678 74.500687,294.531128 53.834373,392.002930 
	C74.322632,388.922119 93.876595,385.813904 113.492592,383.165100 
	C117.728783,382.593109 119.272713,381.044220 120.047119,376.979553 
	C125.900375,346.256927 132.074402,315.595398 137.923615,284.872040 
	C139.045227,278.980713 141.976242,274.688782 146.790848,270.733490 
	C151.869324,305.849365 156.976639,340.399567 161.730118,374.998352 
	C162.326660,379.340240 163.939011,379.853638 167.709488,379.801971 
	C189.365036,379.505249 211.024231,379.464722 232.682327,379.375671 
	C234.764145,379.367096 236.847046,379.621918 239.188324,379.770935 
	C238.290222,383.756317 237.540115,387.084961 236.747208,390.603546 
	C239.505493,391.057922 241.778946,391.515198 244.074219,391.790466 
	C247.215012,392.167175 250.366806,392.572388 253.523499,392.677948 
	C293.463013,394.013794 331.276825,385.886932 366.421143,366.624939 
	C383.145508,357.458618 397.410675,345.409821 407.671295,328.992920 
	C423.940826,302.961853 422.501678,269.470673 403.483734,246.386963 
	C398.910126,240.835617 393.058350,236.337326 387.905853,231.460236 
	C418.873871,216.289139 437.636475,191.822052 442.403076,157.328064 
	C445.579224,134.343582 438.216431,115.492287 418.034607,102.918037 
	C405.619476,95.182808 391.523376,93.660866 377.205627,93.575951 
	C348.542847,93.405960 320.572021,98.655472 292.623932,104.176544 
	C289.827698,104.728920 289.019196,106.098465 288.620209,108.787048 
	C283.855957,140.890182 278.866180,172.959824 274.092926,205.061646 
	C266.626282,255.277222 257.950562,305.260681 245.875412,354.603546 
	C244.819656,358.917725 243.531372,363.174988 242.351089,367.458710 
	C226.948029,321.274231 211.042664,275.726776 200.869537,228.488373 
	C200.178726,225.280579 200.435074,222.833084 202.265259,220.156265 
	C214.102051,202.844009 225.831223,185.458176 238.007111,167.506317 
z"/>
<path fill="#FEFFFF" opacity="1.000000" stroke="none" 
	d="
M501.000000,231.531342 
	C500.075409,226.197906 499.242371,220.379517 498.212585,214.596161 
	C480.165833,113.243263 421.925873,46.135513 325.134033,12.253389 
	C307.522736,6.088523 289.010712,3.336558 270.198608,1.367123 
	C346.927032,1.000000 423.854065,1.000000 501.000000,1.000000 
	C501.000000,77.687424 501.000000,154.375046 501.000000,231.531342 
z"/>
<path fill="#FEFFFF" opacity="1.000000" stroke="none" 
	d="
M270.468658,501.000000 
	C275.797852,500.068604 281.601654,499.172455 287.392700,498.200470 
	C370.419006,484.265411 432.373871,440.501831 472.572205,366.523499 
	C488.810913,336.638794 497.366089,304.283875 500.644165,270.214996 
	C501.000000,346.927032 501.000000,423.854065 501.000000,501.000000 
	C424.312592,501.000000 347.624939,501.000000 270.468658,501.000000 
z"/>
<path fill="#FEFFFF" opacity="1.000000" stroke="none" 
	d="
M1.000001,271.468658 
	C1.955636,276.794159 2.819846,282.605133 3.880489,288.380005 
	C22.624903,390.437714 81.537361,457.817505 179.801468,490.291199 
	C196.350296,495.760101 214.275330,497.064697 231.782257,500.646698 
	C155.073120,501.000000 78.146248,501.000000 1.000000,501.000000 
	C1.000000,424.645905 1.000000,348.291626 1.000001,271.468658 
z"/>
<path fill="#FEFFFF" opacity="1.000000" stroke="none" 
	d="
M231.531342,0.999999 
	C226.199921,1.932211 220.412170,2.950596 214.597916,3.783829 
	C112.466904,18.420061 28.473505,96.563904 7.021505,197.158752 
	C4.736647,207.873123 3.470475,218.804749 1.365865,229.817795 
	C1.000000,153.739304 1.000000,77.478607 1.000000,1.000000 
	C77.687424,1.000000 154.375046,1.000000 231.531342,0.999999 
z"/>
<path fill="#FEFEE8" opacity="1.000000" stroke="none" 
	d="
M237.801392,167.801392 
	C225.831223,185.458176 214.102051,202.844009 202.265259,220.156265 
	C200.435074,222.833084 200.178726,225.280579 200.869537,228.488373 
	C211.042664,275.726776 226.948029,321.274231 242.351089,367.458710 
	C243.531372,363.174988 244.819656,358.917725 245.875412,354.603546 
	C257.950562,305.260681 266.626282,255.277222 274.092926,205.061646 
	C278.866180,172.959824 283.855957,140.890182 288.620209,108.787048 
	C289.019196,106.098465 289.827698,104.728920 292.623932,104.176544 
	C320.572021,98.655472 348.542847,93.405960 377.205627,93.575951 
	C391.523376,93.660866 405.619476,95.182808 418.034607,102.918037 
	C438.216431,115.492287 445.579224,134.343582 442.403076,157.328064 
	C437.636475,191.822052 418.873871,216.289139 387.905853,231.460236 
	C393.058350,236.337326 398.910126,240.835617 403.483734,246.386963 
	C422.501678,269.470673 423.940826,302.961853 407.671295,328.992920 
	C397.410675,345.409821 383.145508,357.458618 366.421143,366.624939 
	C331.276825,385.886932 293.463013,394.013794 253.523499,392.677948 
	C250.366806,392.572388 247.215012,392.167175 244.074219,391.790466 
	C241.778946,391.515198 239.505493,391.057922 236.747208,390.603546 
	C237.540115,387.084961 238.290222,383.756317 239.188324,379.770935 
	C236.847046,379.621918 234.764145,379.367096 232.682327,379.375671 
	C211.024231,379.464722 189.365036,379.505249 167.709488,379.801971 
	C163.939011,379.853638 162.326660,379.340240 161.730118,374.998352 
	C156.976639,340.399567 151.869324,305.849365 146.790848,270.733490 
	C141.976242,274.688782 139.045227,278.980713 137.923615,284.872040 
	C132.074402,315.595398 125.900375,346.256927 120.047119,376.979553 
	C119.272713,381.044220 117.728783,382.593109 113.492592,383.165100 
	C93.876595,385.813904 74.322632,388.922119 53.834373,392.002930 
	C74.500687,294.531128 93.831078,197.251678 104.673912,98.232460 
	C126.703484,99.552002 148.579666,100.862350 171.046661,102.208099 
	C165.780075,130.378647 160.521927,158.503937 155.263794,186.629227 
	C155.726898,186.854904 156.189987,187.080597 156.653091,187.306290 
	C157.593979,186.174377 158.670441,185.128952 159.455811,183.897827 
	C176.552994,157.096924 193.570480,130.244888 210.787460,103.521324 
	C212.031433,101.590469 214.560577,99.531654 216.698685,99.278862 
	C241.327911,96.366989 265.996918,93.791374 290.656525,91.137619 
	C291.290649,91.069382 291.938507,91.129036 292.963470,91.129036 
	C274.509094,116.776596 256.258087,142.141449 237.801392,167.801392 
M317.399994,311.471161 
	C321.019958,310.950134 324.691101,310.659088 328.250824,309.867249 
	C341.796722,306.854004 355.166504,303.428131 365.053406,292.552063 
	C374.111023,282.588257 374.611053,268.268036 365.853210,259.740509 
	C355.655334,249.810867 342.769684,247.927567 329.319611,248.364288 
	C328.194946,248.400803 326.419403,250.429504 326.162170,251.766571 
	C323.303894,266.623566 320.585022,281.509705 318.059082,296.427063 
	C317.220642,301.378632 317.044617,306.442322 317.399994,311.471161 
M342.588104,164.014511 
	C340.452362,175.345444 338.316650,186.676361 336.038269,198.764084 
	C352.078156,195.105865 367.109985,191.215820 379.723877,181.290451 
	C387.164642,175.435593 386.859344,165.868210 379.216248,160.118271 
	C369.103058,152.510071 357.362854,151.276520 344.866028,151.213516 
	C344.138550,155.367004 343.455444,159.267349 342.588104,164.014511 
z"/>
<path fill="#2F6C7C" opacity="1.000000" stroke="none" 
	d="
M316.982849,311.462952 
	C317.044617,306.442322 317.220642,301.378632 318.059082,296.427063 
	C320.585022,281.509705 323.303894,266.623566 326.162170,251.766571 
	C326.419403,250.429504 328.194946,248.400803 329.319611,248.364288 
	C342.769684,247.927567 355.655334,249.810867 365.853210,259.740509 
	C374.611053,268.268036 374.111023,282.588257 365.053406,292.552063 
	C355.166504,303.428131 341.796722,306.854004 328.250824,309.867249 
	C324.691101,310.659088 321.019958,310.950134 316.982849,311.462952 
z"/>
<path fill="#306D7C" opacity="1.000000" stroke="none" 
	d="
M342.680206,163.591110 
	C343.455444,159.267349 344.138550,155.367004 344.866028,151.213516 
	C357.362854,151.276520 369.103058,152.510071 379.216248,160.118271 
	C386.859344,165.868210 387.164642,175.435593 379.723877,181.290451 
	C367.109985,191.215820 352.078156,195.105865 336.038269,198.764084 
	C338.316650,186.676361 340.452362,175.345444 342.680206,163.591110 
z"/>
</svg>